PathFileType	4	(X/Y/Z)	C:\Git\research_data\Projects\torsion_deformities_healthy_kinematics\simulations\TD01\pre\dynamic_14_l\marker_experimental.trc
DataRate	CameraRate	NumFrames	NumMarkers	Units	OrigDataRate	OrigDataStartFrame	OrigNumFrames
200	200	11	30	mm	200	232	618
Frame#	Time	C7			T10			CLAV			STRN			RBAK			LASI			RASI			SACR			RT1			RT2			RT3			RKNE			RS1			RS2			RS3			RANK			RHEE			RTOE			LT1			LT2			LT3			LKNE			LS1			LS2			LS3			LANK			LHEE			LTOE			RHJC			LHJC		
		X1	Y1	Z1	X2	Y2	Z2	X3	Y3	Z3	X4	Y4	Z4	X5	Y5	Z5	X6	Y6	Z6	X7	Y7	Z7	X8	Y8	Z8	X9	Y9	Z9	X10	Y10	Z10	X11	Y11	Z11	X12	Y12	Z12	X13	Y13	Z13	X14	Y14	Z14	X15	Y15	Z15	X16	Y16	Z16	X17	Y17	Z17	X18	Y18	Z18	X19	Y19	Z19	X20	Y20	Z20	X21	Y21	Z21	X22	Y22	Z22	X23	Y23	Z23	X24	Y24	Z24	X25	Y25	Z25	X26	Y26	Z26	X27	Y27	Z27	X28	Y28	Z28	X29	Y29	Z29	X30	Y30	Z30	

232	1.155000	-435.538879	1245.787964	-179.625854	-479.764587	1061.849976	-178.493011	-317.799683	1193.730469	-193.151672	-274.809235	1060.583130	-202.043564	-461.193268	1172.135498	-84.305542	-348.939606	850.979126	-289.088013	-347.333832	863.644897	-86.308258	-510.282379	897.083557	-185.260895	-348.649292	665.752014	-53.275322	-374.478241	604.469971	-52.553284	-324.453461	605.850037	-68.705872	-318.434753	473.510345	-94.098824	-366.226501	341.547821	-68.035240	-387.024780	279.088135	-79.140274	-336.263031	283.386963	-80.136574	-371.841064	85.923233	-112.902847	-418.019714	74.198227	-165.042557	-233.341599	63.506432	-131.818756	-366.104889	660.246826	-334.028320	-375.373962	594.091370	-332.059448	-325.131104	607.340332	-326.488281	-327.131744	443.450134	-323.232574	-455.181976	373.457214	-337.371613	-512.809326	341.440735	-325.437988	-471.259125	312.377777	-317.995667	-650.847168	238.528091	-288.093079	-679.873230	269.323395	-247.896698	-599.586304	105.641777	-249.751053	-413.118347	804.119972	-109.364108	-414.293544	794.850438	-257.769894	
233	1.160000	-429.064636	1246.795044	-179.532196	-473.431061	1062.895874	-178.228058	-311.400604	1194.660400	-193.047318	-268.589264	1061.447021	-201.892212	-454.739746	1173.258667	-84.116661	-342.552490	852.408936	-288.614014	-341.374786	864.459839	-85.805084	-504.095459	898.224792	-185.068390	-344.548920	665.917053	-52.564182	-370.841858	604.941528	-52.166904	-320.700317	605.984741	-68.113686	-316.309082	473.231934	-93.760323	-364.123077	341.530304	-67.710121	-385.209198	279.154205	-78.634598	-334.546967	283.277771	-80.316284	-371.705750	85.977272	-112.918869	-417.986206	74.353951	-165.001846	-233.288666	63.453926	-131.714081	-357.659790	662.740662	-334.407074	-365.482300	596.348450	-332.476715	-315.495544	610.666443	-326.978271	-314.750275	446.523071	-323.787415	-442.089539	375.213379	-337.234222	-499.326202	342.556152	-325.124237	-457.432465	313.896027	-317.938629	-636.247681	237.702927	-287.238831	-665.757935	267.814545	-246.783371	-581.878662	106.034004	-249.579407	-407.118252	805.021178	-109.178883	-407.980168	796.201592	-257.606825	
234	1.165000	-422.601685	1247.756470	-179.445496	-467.108795	1063.890869	-177.967972	-305.013977	1195.542847	-192.944534	-262.375336	1062.266235	-201.730362	-448.302124	1174.334839	-83.937172	-336.143066	853.791199	-288.116089	-335.418579	865.237061	-85.309883	-497.912659	899.322632	-184.901016	-340.348206	666.131042	-51.907871	-367.066864	605.464417	-51.795895	-316.849304	606.183716	-67.615273	-314.185181	472.966797	-93.453804	-361.964539	341.519867	-67.416611	-383.329071	279.221008	-78.142998	-332.774872	283.177277	-80.539719	-371.554260	86.049713	-112.944366	-417.942810	74.520325	-164.966629	-233.221252	63.401897	-131.618271	-349.281677	665.229675	-334.807617	-355.708679	598.635681	-332.942627	-306.016876	613.977051	-327.476685	-302.556152	449.638489	-324.353058	-429.167542	376.866943	-337.132782	-485.959015	343.487213	-324.829620	-443.678833	315.297943	-317.908173	-621.531250	236.556915	-286.402466	-651.522156	265.955322	-245.681305	-563.950684	106.259537	-249.401794	-401.116837	805.891791	-109.001541	-401.647071	797.514850	-257.430348	
235	1.170000	-416.148376	1248.668457	-179.364441	-460.795990	1064.831299	-177.713501	-298.637970	1196.374023	-192.841904	-256.165161	1063.036743	-201.556610	-441.878510	1175.359253	-83.765587	-329.713806	855.115601	-287.598419	-329.465088	865.970825	-84.823898	-491.733643	900.370361	-184.759506	-336.059387	666.361633	-51.307327	-363.193298	606.007690	-51.446239	-312.932281	606.396973	-67.192261	-312.060913	472.708740	-93.183716	-359.802277	341.517944	-67.174362	-381.438904	279.293030	-77.700928	-330.992157	283.083008	-80.792595	-371.389679	86.141190	-112.985916	-417.889130	74.694542	-164.945557	-233.139557	63.350311	-131.536377	-340.970520	667.697327	-335.227692	-346.068970	600.938354	-333.458923	-296.705383	617.245483	-327.978912	-290.552856	452.774170	-324.926178	-416.414124	378.405457	-337.066376	-472.705994	344.230103	-324.555450	-430.001617	316.577179	-317.902557	-606.697266	235.102417	-285.592438	-637.165344	263.758118	-244.598801	-545.808594	106.335022	-249.237366	-395.114688	806.725032	-108.831793	-395.296725	798.780113	-257.242090	
236	1.175000	-409.703186	1249.527100	-179.287842	-454.490967	1065.713745	-177.465424	-292.270752	1197.150024	-192.738144	-249.956604	1063.754639	-201.369843	-435.466980	1176.327515	-83.600533	-323.268036	856.372375	-287.066376	-323.514526	866.654785	-84.348663	-485.558289	901.361755	-184.644226	-331.698547	666.576538	-50.763233	-359.262665	606.540649	-51.124714	-308.982269	606.576721	-66.827599	-309.935028	472.451294	-92.953293	-357.687286	341.524933	-66.997978	-379.593750	279.373840	-77.339203	-329.244232	282.992126	-81.058594	-371.215332	86.251137	-113.048973	-417.824890	74.873810	-164.946518	-233.044434	63.299007	-131.472321	-332.724792	670.127930	-335.664917	-336.573425	603.240784	-334.027039	-287.564850	620.447327	-328.479736	-278.742523	455.908875	-325.502960	-403.823212	379.818634	-337.031464	-459.560852	344.783295	-324.301575	-416.399872	317.729004	-317.920441	-591.743896	233.351486	-284.816315	-622.686096	261.235046	-243.543274	-527.459595	106.274872	-249.104233	-389.113025	807.513629	-108.669957	-388.932612	799.987637	-257.044892	
237	1.180000	-403.264496	1250.328979	-179.214600	-448.192261	1066.535400	-177.224579	-285.910522	1197.867676	-192.632111	-243.747787	1064.416138	-201.169357	-429.065765	1177.235474	-83.440750	-316.809845	857.553101	-286.526306	-317.567596	867.282227	-83.885986	-479.386749	902.291077	-184.555222	-327.283783	666.745483	-50.276615	-355.314270	607.035461	-50.838535	-305.030304	606.681152	-66.507713	-307.807007	472.187927	-92.764313	-355.666138	341.539948	-66.896179	-377.844971	279.465607	-77.081970	-327.573303	282.901489	-81.320801	-371.034912	86.377838	-113.137482	-417.750092	75.055489	-164.976028	-232.937286	63.247803	-131.428650	-324.541534	672.506775	-336.116760	-327.226379	605.526611	-334.647614	-278.592529	623.560974	-328.973450	-267.126068	459.022614	-326.079224	-391.385132	381.098022	-337.022583	-446.513275	345.146942	-324.066803	-402.869110	318.749756	-317.960754	-576.668396	231.315903	-284.080872	-608.082031	258.397888	-242.521439	-508.912506	106.091133	-249.019043	-383.113607	808.250001	-108.517131	-382.558959	801.128617	-256.842842	
238	1.185000	-396.830780	1251.071167	-179.143784	-441.898621	1067.293579	-176.991898	-279.555511	1198.523804	-192.522888	-237.536972	1065.017578	-200.954742	-422.673126	1178.079590	-83.285088	-310.343689	858.650208	-285.985229	-311.625092	867.846313	-83.437927	-473.219269	903.153320	-184.492294	-322.833435	666.843018	-49.849209	-351.382080	607.468689	-50.594654	-301.102997	606.677185	-66.223854	-305.676575	471.912628	-92.616997	-353.777557	341.560822	-66.871590	-376.236023	279.569092	-76.945183	-326.014984	282.807678	-81.563416	-370.852020	86.518593	-113.253578	-417.665253	75.237343	-165.038651	-232.820175	63.196583	-131.406403	-316.416534	674.820374	-336.580444	-318.026520	607.779358	-335.320038	-269.779694	626.567993	-329.454010	-255.703522	462.096771	-326.650452	-379.087280	382.236786	-337.033020	-433.550049	345.322510	-323.849762	-389.402252	319.636749	-318.022949	-561.467468	229.007172	-283.392059	-593.349670	255.258026	-241.539612	-490.178131	105.793510	-248.996536	-377.118490	808.926622	-108.374912	-376.180495	802.195014	-256.640816	
239	1.190000	-390.400513	1251.750732	-179.074554	-435.608826	1067.986450	-176.768356	-273.204010	1199.115601	-192.409668	-231.322571	1065.555908	-200.725937	-416.287354	1178.856689	-83.132515	-303.874176	859.657593	-285.450684	-305.688049	868.340759	-83.006798	-467.056244	903.943848	-184.455093	-318.364471	666.849670	-49.483524	-347.492371	607.822937	-50.398968	-297.220581	606.542419	-65.972771	-303.543732	471.620148	-92.509964	-352.049255	341.584534	-66.921112	-374.798645	279.683716	-76.935844	-324.595795	282.707214	-81.773178	-370.670135	86.669998	-113.397476	-417.571503	75.417725	-165.136612	-232.695572	63.145290	-131.405121	-308.344788	677.056274	-337.052948	-308.967773	609.982971	-336.041748	-261.112671	629.453674	-329.915405	-244.473923	465.114197	-327.211945	-366.915222	383.229187	-337.055389	-420.656128	345.312439	-323.649139	-375.990570	320.388092	-318.106903	-546.137634	226.436508	-282.754852	-578.484558	251.826584	-240.603668	-471.269318	105.389427	-249.049377	-371.129735	809.536330	-108.245457	-369.801890	803.179821	-256.444426	
240	1.195000	-383.972229	1252.365723	-179.006256	-429.321930	1068.612183	-176.554993	-266.854340	1199.640625	-192.291855	-225.103226	1066.028198	-200.483200	-409.906891	1179.563965	-82.982140	-297.405975	860.570190	-284.930328	-299.757599	868.759705	-82.595100	-460.898132	904.659119	-184.443207	-313.891357	666.753479	-49.182697	-343.662140	608.087097	-50.255478	-293.395874	606.266052	-65.756607	-301.408325	471.306335	-92.440331	-350.495819	341.607391	-67.036690	-373.550385	279.807800	-77.051933	-323.331085	282.596863	-81.940666	-370.492432	86.828308	-113.567444	-417.470703	75.595734	-165.269577	-232.566269	63.093956	-131.423050	-300.320862	679.203247	-337.531036	-300.040314	612.122192	-336.807953	-252.574371	632.206787	-330.351959	-233.435760	468.059265	-327.758911	-354.853790	384.070709	-337.082367	-407.815948	345.120026	-323.463776	-362.624878	321.002716	-318.212952	-530.675415	223.615005	-282.173462	-563.481262	248.114502	-239.719131	-452.200653	104.884224	-249.187836	-365.149645	810.072663	-108.131272	-363.428036	804.077172	-256.259595	
241	1.200000	-377.544556	1252.913696	-178.938370	-423.037140	1069.169678	-176.352859	-260.504944	1200.096558	-192.169037	-218.877701	1066.431885	-200.227066	-403.530243	1180.199097	-82.833176	-290.943481	861.384094	-284.431702	-293.834778	869.098267	-82.205429	-454.745300	905.296143	-184.456207	-309.425262	666.549866	-48.950073	-339.898590	608.256775	-50.165630	-289.633911	605.848633	-65.581932	-299.269989	470.968292	-92.403877	-349.117981	341.625793	-67.206551	-372.493195	279.939087	-77.283005	-322.224060	282.473938	-82.060959	-370.321533	86.989731	-113.759964	-417.365295	75.771255	-165.434631	-232.435120	63.042675	-131.457382	-292.339661	681.251160	-338.011078	-291.231537	614.182983	-337.611267	-244.145828	634.819458	-330.758423	-222.586990	470.917847	-328.286499	-342.888092	384.757599	-337.107208	-395.014465	344.748993	-323.292603	-349.296722	321.480164	-318.341553	-515.077454	220.553680	-281.651306	-548.333496	244.132599	-238.891022	-432.988068	104.281372	-249.419678	-359.180211	810.530040	-108.035001	-357.063387	804.882212	-256.092241	
242	1.205000	-371.116211	1253.393311	-178.870499	-416.753693	1069.657959	-176.163116	-254.154236	1200.481812	-192.040970	-212.644943	1066.764526	-199.958328	-397.155975	1180.760132	-82.685013	-284.490662	862.096741	-283.961945	-287.920563	869.352600	-81.840401	-448.598083	905.852783	-184.493774	-304.973602	666.241821	-48.788651	-336.199554	608.333801	-50.127991	-285.932404	605.301086	-65.458252	-297.127747	470.604553	-92.395363	-347.902832	341.636658	-67.416527	-371.613586	280.075134	-77.611366	-321.265930	282.336731	-82.133766	-370.159332	87.150742	-113.970024	-417.258026	75.944885	-165.626587	-232.304855	62.991608	-131.504532	-284.396790	683.190918	-338.489166	-282.527344	616.152588	-338.441620	-235.807953	637.286560	-331.130341	-211.925339	473.677307	-328.789917	-331.004608	385.287079	-337.124237	-382.238281	344.203339	-323.134491	-335.998962	321.820770	-318.493195	-499.340454	217.263489	-281.191010	-533.034119	239.891769	-238.123856	-413.648193	103.583000	-249.750122	-353.223202	810.903963	-107.959421	-350.711908	805.591390	-255.948144	
